 <svg version="1.0" xmlns="http://www.w3.org/2000/svg" width="700.000000pt" height="148.000000pt" viewBox="0 0 700.000000 148.000000" preserveAspectRatio="xMidYMid meet">
<metadata>
Created by potrace 1.12, written by Peter Selinger 2001-2015
</metadata>
<g transform="translate(0.000000,148.000000) scale(0.100000,-0.100000)" fill="#000000" stroke="none">
<path d="M0 740 l0 -740 3500 0 3500 0 0 740 0 740 -3500 0 -3500 0 0 -740z
m159 600 c179 -116 275 -139 503 -120 81 7 180 10 220 7 151 -13 316 -77 497
-194 114 -74 228 -128 326 -154 110 -30 350 -32 475 -5 169 36 342 105 483
190 42 25 83 46 91 46 30 0 16 -27 -30 -60 -54 -38 -115 -128 -134 -194 -36
-131 36 -302 158 -373 42 -25 56 -28 137 -27 63 0 102 5 130 18 47 20 147 87
142 95 -92 161 -58 396 74 515 168 151 421 149 583 -4 l53 -50 45 19 c138 59
263 51 363 -24 30 -22 36 -23 400 -28 391 -6 467 -12 635 -53 160 -39 285
-104 443 -231 73 -58 162 -134 199 -169 91 -85 143 -104 292 -104 191 0 322
-45 531 -184 118 -79 151 -108 140 -125 -12 -20 -37 -11 -118 43 -153 101
-222 122 -392 116 -290 -9 -386 -5 -466 17 -109 31 -208 79 -347 167 -67 42
-151 90 -188 107 -211 96 -488 102 -760 18 -110 -35 -298 -120 -367 -168 -91
-62 -105 -30 -19 45 31 28 71 75 87 105 28 50 30 62 30 154 0 86 -3 106 -24
145 -63 121 -148 180 -257 180 -62 0 -188 -32 -199 -50 -4 -6 4 -36 16 -68 18
-45 23 -78 23 -163 1 -102 0 -107 -37 -181 -73 -148 -211 -231 -382 -230 -120
1 -233 51 -307 136 l-27 31 -38 -23 c-180 -109 -335 -115 -464 -19 -25 18 -44
19 -305 18 -413 -1 -613 19 -811 79 -137 41 -285 141 -518 349 -122 109 -153
121 -337 131 -223 12 -308 42 -525 188 -125 83 -138 95 -129 117 9 24 25 18
105 -35z"></path>
<path d="M3430 1144 c-116 -31 -195 -96 -247 -202 -35 -70 -38 -83 -38 -161 0
-72 4 -94 25 -136 14 -27 31 -49 37 -48 23 5 613 398 613 408 0 18 -72 81
-117 104 -52 26 -146 51 -188 50 -16 0 -55 -7 -85 -15z"></path>
<path d="M4345 972 c-1 -2 14 -35 34 -74 34 -66 36 -77 36 -162 0 -78 -4 -99
-26 -143 -14 -29 -24 -55 -22 -57 3 -2 42 13 87 35 100 47 231 90 346 115 129
28 356 26 475 -5 104 -26 235 -86 351 -158 120 -76 232 -130 331 -159 81 -24
100 -26 233 -23 80 1 187 3 238 3 87 0 111 6 76 20 -51 19 -166 38 -280 45
-161 10 -214 31 -312 124 -67 63 -211 186 -287 244 -46 35 -142 85 -217 113
-172 63 -337 81 -736 83 -178 1 -325 1 -327 -1z"></path>
</g>
</svg>