 <svg version="1.0" xmlns="http://www.w3.org/2000/svg" width="700.000000pt" height="141.000000pt" viewBox="0 0 700.000000 141.000000" preserveAspectRatio="xMidYMid meet">
<metadata>
Created by potrace 1.12, written by Peter Selinger 2001-2015
</metadata>
<g transform="translate(0.000000,141.000000) scale(0.100000,-0.100000)" fill="#000000" stroke="none">
<path d="M55 1309 c-10 -16 20 -44 116 -109 216 -146 330 -186 559 -199 90 -5
158 -14 181 -23 20 -9 69 -44 109 -79 262 -227 325 -274 451 -336 67 -33 94
-41 244 -73 159 -34 252 -40 601 -40 l341 0 37 -29 c63 -50 114 -64 213 -59
95 5 150 24 231 79 l44 30 52 -49 c60 -57 92 -75 179 -102 79 -25 159 -25 231
0 134 46 211 110 262 219 39 81 45 221 15 306 -12 33 -24 67 -27 77 -10 27 76
59 176 65 108 7 170 -16 232 -86 64 -72 92 -142 93 -231 0 -102 -40 -187 -126
-262 -53 -48 -73 -78 -50 -78 4 0 25 11 46 26 61 41 244 129 336 162 200 71
391 93 568 68 163 -24 252 -60 437 -177 202 -127 375 -189 537 -192 45 -1 150
3 232 7 127 7 160 6 214 -9 79 -20 166 -63 249 -122 57 -41 92 -50 92 -24 0
25 -198 160 -325 221 -111 54 -177 69 -348 80 -176 10 -208 23 -307 115 -99
92 -298 248 -365 287 -209 119 -439 158 -944 158 l-319 0 -51 34 c-94 63 -211
70 -339 19 l-63 -25 -52 50 c-111 104 -246 140 -390 103 -133 -35 -219 -105
-278 -228 -31 -63 -33 -75 -33 -168 0 -88 3 -107 27 -159 15 -33 26 -60 25
-62 -18 -17 -115 -75 -147 -88 -99 -39 -219 -30 -296 22 -56 39 -111 124 -131
202 -32 126 18 263 130 354 32 26 44 42 37 49 -7 7 -30 -3 -73 -31 -137 -89
-324 -162 -520 -203 -87 -18 -126 -20 -253 -16 -211 7 -328 43 -507 158 -132
85 -299 165 -398 191 -95 24 -194 28 -405 14 -89 -6 -149 -5 -190 3 -74 14
-188 67 -271 126 -65 47 -78 52 -89 34z m3636 -256 c75 -35 139 -87 139 -113
0 -18 -23 -35 -300 -215 -74 -48 -175 -114 -224 -146 -49 -33 -95 -59 -102
-59 -17 0 -56 104 -61 166 -14 142 90 314 223 370 65 28 95 33 179 30 66 -2
93 -8 146 -33z m1484 -173 c313 -56 462 -139 754 -419 31 -29 84 -66 118 -83
56 -27 77 -30 210 -38 81 -5 171 -15 198 -23 60 -17 150 -55 143 -62 -2 -3
-38 2 -79 10 -61 12 -98 12 -217 3 -159 -13 -251 -5 -363 32 -82 27 -233 103
-327 164 -336 219 -731 229 -1159 31 -42 -19 -79 -33 -81 -30 -3 3 4 22 15 43
58 102 46 259 -26 361 -11 16 -18 31 -15 34 3 3 164 4 358 2 307 -3 366 -6
471 -25z"></path>
</g>
</svg>